<?xml version="1.0" encoding="UTF-8" standalone="no"?>
<svg
   width="64"
   height="64"
   version="1.1"
   id="svg22"
   sodipodi:docname="hardware.svg"
   xml:space="preserve"
   inkscape:version="1.2.2 (b0a8486541, 2022-12-01)"
   xmlns:inkscape="http://www.inkscape.org/namespaces/inkscape"
   xmlns:sodipodi="http://sodipodi.sourceforge.net/DTD/sodipodi-0.dtd"
   xmlns:xlink="http://www.w3.org/1999/xlink"
   xmlns="http://www.w3.org/2000/svg"
   xmlns:svg="http://www.w3.org/2000/svg"><defs
     id="defs26"><radialGradient
       xlink:href="#a"
       id="b"
       cx="44"
       cy="42.5"
       r="1.5"
       fx="44"
       fy="42.5"
       gradientTransform="matrix(0,2.66667,-2,0,128,980.186)"
       gradientUnits="userSpaceOnUse" /><radialGradient
       xlink:href="#a"
       id="d"
       cx="4"
       cy="42.5"
       r="1.5"
       fx="4"
       fy="42.5"
       gradientTransform="matrix(-2,0,0,-2.66667,29,1210.853)"
       gradientUnits="userSpaceOnUse" /><linearGradient
       id="a"><stop
         offset="0"
         id="stop257" /><stop
         offset="1"
         stop-opacity="0"
         id="stop259" /></linearGradient><linearGradient
       xlink:href="#a"
       id="c"
       x1="24"
       x2="24"
       y1="42"
       y2="46"
       gradientTransform="translate(9,1055.52)"
       gradientUnits="userSpaceOnUse" /></defs><sodipodi:namedview
     id="namedview24"
     pagecolor="#ffffff"
     bordercolor="#000000"
     borderopacity="0.25"
     inkscape:showpageshadow="2"
     inkscape:pageopacity="0.0"
     inkscape:pagecheckerboard="0"
     inkscape:deskcolor="#d1d1d1"
     showgrid="false"
     inkscape:zoom="4.4765625"
     inkscape:cx="44.788831"
     inkscape:cy="40.767888"
     inkscape:window-width="1366"
     inkscape:window-height="738"
     inkscape:window-x="474"
     inkscape:window-y="42"
     inkscape:window-maximized="0"
     inkscape:current-layer="svg22" /><g
     transform="translate(4.42 -2)"
     id="g20"><path
       fill="#2f3133"
       stroke="#000"
       stroke-opacity=".627"
       d="M20.254 22.904c.72-2.852.026-5.884.126-8.824.22-6.42 3.784-7.876 7.438-8.066 4.192-.22 9.154 2.264 9.454 8.32.142 2.898-.37 5.892.378 8.696 1.742 6.54 9.22 11.262 9.328 18.026.1 6.428-2.86 14.004-8.32 17.396-2.82 1.752-6.646-.35-9.96-.126-3.686.252-7.786 3.526-10.966 1.64-5.772-3.426-7.364-12.21-6.932-18.91.44-6.808 7.784-11.536 9.454-18.152z"
       id="path2" /><ellipse
       cx="30.52"
       cy="17.564"
       fill="#fcfcfc"
       fill-opacity=".941"
       rx="2.964"
       ry="3.832"
       id="ellipse4" /><ellipse
       cx="23.5"
       cy="17.698"
       fill="#fcfcfc"
       fill-opacity=".941"
       rx="2.094"
       ry="3.12"
       id="ellipse6" /><ellipse
       cx="30.152"
       cy="18.188"
       fill="#232629"
       rx="1.214"
       ry="2.006"
       id="ellipse8" /><ellipse
       cx="23.51"
       cy="18.188"
       fill="#232629"
       rx=".924"
       ry="1.494"
       id="ellipse10" /><path
       fill="#f7f7f8"
       d="M30.128 21.514a10 10 0 0 0-1.09.008c-2.46.144-5.096 1.11-6.428 2.28-2.132 1.874-.868 3.696-1.786 6.328s-3.228 6.076-3.92 9.36c-.28 1.326-.636 2.652-.88 3.984l6.586 8.048c1.294 1.58-2.082.994-5.222-1.04 2.228 3.134 6.648 6.24 11.012 5.946 4.648-.312 10.136-5.172 11.892-9.146-1.704-.288-3.36-2.852-1.996-4.762.474-.662 1.492-.72 2.366-.58-.526-2.036-1.574-3.86-2.1-5.392-.912-2.672-1.972-3.42-2.94-5.792-.97-2.372.054-6.76-2.676-8.468-.768-.48-1.75-.72-2.818-.774"
       id="path12" /><g
       fill="#f7a931"
       stroke="#000"
       id="g18"><path
         stroke-opacity=".627"
         d="M9.666 46.73c.974-.78 1.43-2.366 2.646-2.648.952-.22 2.02.326 2.774.946 1.722 1.416 1.984 4.028 3.34 5.8.904 1.178 2.436 1.848 3.152 3.15.746 1.36 1.708 3.156 1.008 4.538-.944 1.862-3.648 2.44-5.736 2.52-1.268.05-2.37-.92-3.592-1.26-1.78-.496-3.834-.19-5.42-1.134C6.58 57.896 5.092 56.76 5 55.302c-.038-.576.805-.89.945-1.45.372-1.472-1.054-3.18-.378-4.54.72-1.444 2.836-1.574 4.098-2.582zm28.194-2.192c-.402.36-.742.814-.99 1.264-1.076 1.954-.35 4.48-.954 6.626-.404 1.43-1.578 2.62-1.76 4.092-.19 1.54-.42 3.564.742 4.59 1.568 1.38 4.294.914 6.262.216 1.198-.424 1.86-1.732 2.87-2.5 1.468-1.12 3.49-1.6 4.614-3.062.89-1.16 1.854-2.764 1.4-4.152-.18-.548-1.076-.53-1.414-.998-.89-1.23-.2-3.34-1.33-4.352-.84-.75-2.074-.664-3.266-.696-.576 1.234-2.452 2.074-3.742 1.716-1.092-.304-2.18-1.546-2.432-2.744z"
         id="path14" /><path
         stroke-opacity=".494"
         d="M26.462 18.304c1.318-.07 2.53.784 3.72 1.354 1.15.554 3.114.72 3.276 1.986.186 1.438-1.84 2.286-3.024 3.12-1.058.746-2.238 1.62-3.53 1.608-1.306-.014-2.462-.95-3.53-1.702-.88-.62-2.266-1.192-2.3-2.27-.038-1.152 1.38-1.886 2.3-2.584.912-.692 1.944-1.452 3.088-1.512z"
         id="path16" /></g></g><g
     transform="matrix(0.52863896,0,0,0.52863896,27.381671,-531.26543)"
     id="g325"><path
       fill="#fbc02d"
       d="m 27,1113.52 v 3 c 0,0.554 0.446,1 1,1 h 24 c 0.554,0 1,-0.446 1,-1 v -3 H 28 Z m -16,0 v 3 c 0,0.554 0.446,1 1,1 h 11 c 0.554,0 1,-0.446 1,-1 v -3 H 12 Z"
       id="path265" /><rect
       width="58"
       height="44"
       x="3"
       y="1070.52"
       fill="#2e7d32"
       ry="2.046"
       id="rect267" /><rect
       width="56"
       height="42"
       x="4"
       y="1071.52"
       fill="#388e3c"
       ry="1.024"
       id="rect269" /><rect
       width="26"
       height="2"
       x="27"
       y="1114.52"
       fill="#fdd835"
       ry="0"
       id="rect271" /><rect
       width="13"
       height="2"
       x="11"
       y="1114.52"
       fill="#fdd835"
       ry="0"
       id="rect273" /><path
       fill="#43a047"
       fill-rule="evenodd"
       d="m 18,1098.52 -10,8 v 3 l 6,-4 v 2 l -6,4 h 4 l 1,2 h 5 v -5 l 6,-5 h 3 l -6,5 v 5 h 38 c 0.554,0 1,-0.446 1,-1 v -3.092 l -7,-8.908 h -2 l -2,-2 z"
       id="path275" /><circle
       cx="58.5"
       cy="1112.02"
       r="1.5"
       fill="#fbc02d"
       id="circle277" /><circle
       cx="58.5"
       cy="1112.02"
       r="0.5"
       fill="#263238"
       id="circle279" /><circle
       cx="58.5"
       cy="1073.02"
       r="1.5"
       fill="#fbc02d"
       id="circle281" /><circle
       cx="58.5"
       cy="1073.02"
       r="0.5"
       fill="#263238"
       id="circle283" /><circle
       cx="5.5"
       cy="1112.02"
       r="1.5"
       fill="#fbc02d"
       id="circle285" /><circle
       cx="5.5"
       cy="1112.02"
       r="0.5"
       fill="#263238"
       id="circle287" /><circle
       cx="5.5"
       cy="1073.02"
       r="1.5"
       fill="#fbc02d"
       id="circle289" /><circle
       cx="5.5"
       cy="1073.02"
       r="0.5"
       fill="#263238"
       id="circle291" /><path
       fill="#43a047"
       fill-rule="evenodd"
       d="m 10,1071.52 v 8 l -2,2 v 2 l 3,3 h 38 l 7,-8 h 4 v -1 h -4 v -4 l -8,9 h -3 l 8,-9 -2,-2 z"
       id="path293" /><path
       fill="#ffeb3b"
       d="m 11,1114.52 h 13 v 1 H 11 Z m 16,0 h 26 v 1 H 27 Z"
       id="path295" /><path
       fill="url(#b)"
       d="m 43,1097.52 v 4 h 1 c 1.108,0 2,-0.892 2,-2 v -2 z"
       opacity="0.7"
       id="path297"
       style="fill:url(#b)" /><path
       fill="url(#c)"
       d="m 21,1097.52 v 4 h 22 v -4 z"
       opacity="0.7"
       id="path299"
       style="fill:url(#c)" /><path
       fill="url(#d)"
       d="m 18,1097.52 v 2 c 0,1.108 0.892,2 2,2 h 1 v -4 z"
       opacity="0.7"
       id="path301"
       style="fill:url(#d)" /><rect
       width="28"
       height="16"
       x="18"
       y="1084.52"
       fill="#263238"
       ry="1"
       id="rect303" /><rect
       width="26"
       height="14"
       x="19"
       y="1085.52"
       fill="#37474f"
       ry="0"
       id="rect305" /><rect
       width="14"
       height="6"
       x="10"
       y="1074.52"
       fill="#263238"
       ry="1"
       id="rect307" /><rect
       width="9"
       height="1"
       x="11"
       y="1075.52"
       fill="#90a4ae"
       ry="0"
       id="rect309" /><path
       fill="#90a4ae"
       d="m 11,1077.52 h 5 v 1 h -5 z m 6,0 h 2 v 1 h -2 z"
       id="path311" /><rect
       width="17"
       height="6"
       x="37"
       y="1104.519"
       fill="#eceff1"
       ry="1"
       id="rect313" /><rect
       width="9"
       height="1"
       x="38"
       y="1105.519"
       fill="#37474f"
       ry="0"
       id="rect315" /><path
       fill="#37474f"
       d="m 38,1107.519 h 5 v 1 h -5 z"
       id="path317" /><path
       fill="#37474f"
       fill-rule="evenodd"
       d="m 49,1109.52 2,-3 2,3 z"
       id="path319" /><rect
       width="2"
       height="2"
       x="21"
       y="1077.52"
       fill="#90a4ae"
       ry="0"
       id="rect321" /><path
       fill="#dfdfdf"
       fill-rule="evenodd"
       d="m 21,1087.52 h 2 v 10 h -2 z m 4,0 h 2 v 10 h -2 z m 4,0 h 2 v 10 h -2 z m 4,0 h 2 v 10 h -2 z m 4,0 h 2 v 10 h -2 z m 4,0 h 2 v 10 h -2 z"
       opacity="0.15"
       paint-order="fill markers stroke"
       id="path323" /></g></svg>
