<?xml version="1.0" encoding="UTF-8" standalone="no"?>
<svg
   height="87.085716mm"
   width="91.117462mm"
   id="svg4357"
   version="1.1"
   inkscape:version="1.2.2 (b0a8486541, 2022-12-01)"
   sodipodi:docname="i3.svg"
   xmlns:inkscape="http://www.inkscape.org/namespaces/inkscape"
   xmlns:sodipodi="http://sodipodi.sourceforge.net/DTD/sodipodi-0.dtd"
   xmlns="http://www.w3.org/2000/svg"
   xmlns:svg="http://www.w3.org/2000/svg"
   xmlns:rdf="http://www.w3.org/1999/02/22-rdf-syntax-ns#"
   xmlns:cc="http://creativecommons.org/ns#"
   xmlns:dc="http://purl.org/dc/elements/1.1/">
  <metadata
     id="metadata4417">
    <rdf:RDF>
      <cc:Work
         rdf:about="">
        <dc:format>image/svg+xml</dc:format>
        <dc:type
           rdf:resource="http://purl.org/dc/dcmitype/StillImage" />
        <dc:title />
      </cc:Work>
    </rdf:RDF>
  </metadata>
  <defs
     id="defs4415" />
  <sodipodi:namedview
     pagecolor="#ffffff"
     bordercolor="#666666"
     borderopacity="1"
     objecttolerance="10"
     gridtolerance="10"
     guidetolerance="10"
     inkscape:pageopacity="0"
     inkscape:pageshadow="2"
     inkscape:window-width="1362"
     inkscape:window-height="706"
     id="namedview4413"
     showgrid="false"
     fit-margin-top="0"
     fit-margin-left="0"
     fit-margin-right="0"
     fit-margin-bottom="0"
     inkscape:zoom="0.92096825"
     inkscape:cx="195.98938"
     inkscape:cy="169.92985"
     inkscape:window-x="0"
     inkscape:window-y="0"
     inkscape:window-maximized="1"
     inkscape:current-layer="svg4357"
     inkscape:showpageshadow="2"
     inkscape:pagecheckerboard="0"
     inkscape:deskcolor="#d1d1d1"
     inkscape:document-units="mm" />
  <filter
     id="a"
     x="-0.079113493"
     y="-0.069642611"
     width="1.158227"
     height="1.1392852">
    <feGaussianBlur
       stdDeviation="13.396228"
       id="feGaussianBlur4360" />
  </filter>
  <radialGradient
     id="b"
     cx="351.15485"
     cy="372.06332"
     gradientTransform="matrix(1.1454302,-1.1687051,2.0295327,1.9193266,-889.0626,57.219022)"
     gradientUnits="userSpaceOnUse"
     r="163.57143">
    <stop
       offset="0"
       stop-color="#189fff"
       stop-opacity=".380392"
       id="stop4363" />
    <stop
       offset="1"
       stop-color="#010b2b"
       id="stop4365" />
  </radialGradient>
  <g
     style="fill:#ffffff;fill-rule:evenodd"
     id="g4401"
     transform="translate(-34.85714,-98.6479)">
    <path
       style="opacity:0.87"
       inkscape:connector-curvature="0"
       id="path4403"
       d="m 232.58675,170.48705 c -5.52626,5.71371 -5.37908,14.82412 0.32886,20.35634 0,0 29.67992,29.55642 66.779,66.50112 7.92839,7.8954 9.20688,17.37763 5.24164,31.11336 -3.96524,13.73572 -14.22829,29.85051 -27.40648,43.08376 -13.17818,13.23325 -29.25004,23.56341 -42.9691,27.58589 -13.71907,4.02248 -23.20656,2.78354 -31.13495,-5.11186 -18.496,-18.41904 -35.00865,-35.16193 -47.01836,-47.26732 -6.00485,-6.0527 -10.86475,-10.93947 -14.37218,-14.37589 -1.75371,-1.71821 -3.14199,-3.04119 -4.33673,-4.12814 -0.59736,-0.54347 -1.08586,-0.98859 -1.92349,-1.64025 -0.41881,-0.32583 -0.80945,-0.69221 -2.10337,-1.4171 -0.64695,-0.36245 -1.42193,-0.88298 -3.60976,-1.43518 -2.18782,-0.55221 -8.39243,-1.60755 -13.78265,3.80523 -3.20715,3.13855 -4.7683,7.59254 -4.2224,12.04656 0.5459,4.45402 3.13649,8.39915 7.00667,10.67027 0.71225,0.66649 1.52513,1.41253 2.81674,2.67799 3.27129,3.20507 8.1055,8.06276 14.08516,14.09007 11.95933,12.05462 28.53222,28.85811 47.13529,47.38377 16.18601,16.11865 39.37063,18.26267 59.56923,12.34037 20.1986,-5.92231 39.3008,-18.8635 55.26991,-34.89933 15.96911,-16.03584 28.83053,-35.19184 34.66856,-55.41496 5.83803,-20.22312 3.59735,-43.3986 -12.58866,-59.51725 -37.09907,-36.9447 -66.77899,-66.50112 -66.77899,-66.50112 -2.71913,-2.78218 -6.44805,-4.34615 -10.3383,-4.33604 -3.89027,0.0101 -7.61101,1.59343 -10.31564,4.38971 z" />
    <path
       style="opacity:0.87"
       inkscape:connector-curvature="0"
       id="path4405"
       d="m 174.22754,229.70669 c -5.52626,5.7137 -5.37909,14.82411 0.32886,20.35633 l 74.86858,74.55705 c 3.62846,3.71702 8.97724,5.1924 13.99818,3.86118 5.02094,-1.33122 8.93615,-5.26279 10.24642,-10.28924 1.31027,-5.02645 -0.18739,-10.36902 -3.91952,-13.98195 l -74.86858,-74.55704 c -2.71913,-2.78219 -6.44805,-4.34615 -10.33831,-4.33605 -3.89026,0.0101 -7.611,1.59343 -10.31563,4.38972 z" />
    <path
       style="opacity:0.87"
       inkscape:connector-curvature="0"
       id="path4407"
       transform="matrix(0.3387513,-0.3401668,0.3401668,0.3387513,55.827163,274.10463)"
       d="m 100,40 a 30,30 0 1 1 -60,0 30,30 0 1 1 60,0 z" />
    <path
       style="opacity:0.87"
       inkscape:connector-curvature="0"
       id="path4409"
       transform="matrix(0.3387513,-0.3401668,0.3401668,0.3387513,113.41488,216.27627)"
       d="m 100,40 a 30,30 0 1 1 -60,0 30,30 0 1 1 60,0 z" />
    <path
       style="opacity:0.87"
       inkscape:connector-curvature="0"
       id="path4411"
       transform="matrix(0.3387513,-0.3401668,0.3401668,0.3387513,172.69636,156.74708)"
       d="m 100,40 a 30,30 0 1 1 -60,0 30,30 0 1 1 60,0 z" />
  </g>
</svg>
