<?xml version="1.0" encoding="UTF-8" standalone="no"?>
<svg
   width="64"
   height="64"
   version="1.1"
   id="svg12"
   sodipodi:docname="way.svg"
   xml:space="preserve"
   inkscape:version="1.2.2 (b0a8486541, 2022-12-01)"
   xmlns:inkscape="http://www.inkscape.org/namespaces/inkscape"
   xmlns:sodipodi="http://sodipodi.sourceforge.net/DTD/sodipodi-0.dtd"
   xmlns="http://www.w3.org/2000/svg"
   xmlns:svg="http://www.w3.org/2000/svg"><defs
     id="defs16" /><sodipodi:namedview
     id="namedview14"
     pagecolor="#ffffff"
     bordercolor="#000000"
     borderopacity="0.25"
     inkscape:showpageshadow="2"
     inkscape:pageopacity="0.0"
     inkscape:pagecheckerboard="0"
     inkscape:deskcolor="#d1d1d1"
     showgrid="false"
     inkscape:zoom="3.1654077"
     inkscape:cx="108.83274"
     inkscape:cy="49.124794"
     inkscape:window-width="1366"
     inkscape:window-height="738"
     inkscape:window-x="571"
     inkscape:window-y="29"
     inkscape:window-maximized="0"
     inkscape:current-layer="svg12" /><path
     fill="#c4c7cc"
     stroke="#9e9e9e"
     stroke-width="2"
     d="M25.9 43.834c-.52 0-.9.378-.9.834v10.955L20.922 56H20.9c-.52 0-.9.378-.9.834V58h24v-1.166c0-.456-.381-.834-.9-.834h-.024L39 55.623V44.668c0-.456-.38-.834-.9-.834z"
     id="path2" /><path
     fill="#c4c7cc"
     d="M25.9 43.834c-.52 0-.9.378-.9.834v10.955L20.922 56H20.9c-.52 0-.9.378-.9.834V58h24v-1.166c0-.456-.381-.834-.9-.834h-.024L39 55.623V44.668c0-.456-.38-.834-.9-.834z"
     id="path4" /><rect
     width="60"
     height="40"
     x="2"
     y="6"
     fill="#2f3337"
     stroke="#1a1a1a"
     stroke-width="2"
     rx="6"
     ry="6"
     id="rect6" /><rect
     width="60"
     height="40"
     x="2"
     y="6"
     fill="#2f3337"
     rx="6"
     ry="6"
     id="rect8" /><rect
     width="54"
     height="34"
     x="5"
     y="9"
     fill="#5294e2"
     rx="3"
     ry="3"
     id="rect10" /><g
     stroke-width="0.741"
     transform="matrix(0.73015851,0,0,0.73015851,-266.17929,-356.8598)"
     id="g251"><rect
       width="40"
       height="40"
       x="388.44"
       y="503.88"
       fill="#f9b02d"
       fill-opacity="0.902"
       stroke="#bc7904"
       stroke-opacity="0.965"
       stroke-width="1.482"
       opacity="0.9"
       rx="20"
       id="rect245" /><rect
       width="40"
       height="40"
       x="388.44"
       y="503.88"
       fill="#f9b02d"
       fill-opacity="0.902"
       opacity="0.9"
       rx="20"
       id="rect247" /><path
       fill="#ffffff"
       d="m 421.26,507.8 q 0.988,0 1.105,1.49 l -0.553,4.681 h 0.204 l 0.436,-0.346 h 0.116 v 0.104 q -0.9,0.658 -1.744,3.605 -0.32,2.531 -1.076,4.68 -0.669,2.22 -0.669,4.092 l -0.843,2.461 q 0,0.312 0.96,0.624 -0.175,0.728 -0.524,0.728 v 0.139 h 0.204 v 0.104 q 0,0.381 -0.989,0.381 l 0.117,0.139 v 0.485 H 417.8 q 0.204,0.728 0.872,0.728 v 0.243 H 417.8 v 0.139 q 0.436,0 0.436,0.624 l -1.221,0.485 0.116,0.139 v 0.104 q 0,0.243 -0.436,0.242 v 0.14 q 0.553,0 0.553,0.242 -0.786,0.312 -2.065,3.085 -1.308,2.462 -2.268,2.462 h -0.232 q -0.727,-0.555 -1.192,-3.675 -1.861,-4.75 -1.861,-5.582 0,-2.15 -1.192,-4.576 -0.32,-1.075 -0.437,-2.704 l -0.523,-0.14 q -1.977,3.572 -2.064,5.583 -0.554,1.178 -0.873,2.843 1.193,0.38 1.193,0.728 v 0.138 q -0.93,-0.139 -1.309,-0.52 -0.407,0.936 -1.076,5.2 -0.524,1.977 -1.308,1.977 -2.21,-0.867 -3.693,-2.843 -0.232,0 -0.756,-1.976 -0.32,0 -0.436,-1.976 -1.104,-2.809 -1.512,-6.414 v -3.606 h -0.116 l -0.523,0.139 v -0.139 q 0,-0.243 0.523,-0.243 l -0.116,-2.08 v -1.63 l -0.844,-5.2 v -2.219 q 0.553,-2.08 1.92,-2.08 c 0,0 0.08,-0.005 0.348,0.347 l -0.348,-0.104 q 2.122,2.774 2.5,4.68 h 0.989 v 0.243 h -0.756 v 0.277 q 0.436,1.595 0.64,1.595 h 0.232 l 0.523,-0.139 0.117,0.14 0.116,-0.14 0.116,0.14 v 0.103 q -0.581,0.417 -0.785,1.144 h -0.087 v 0.243 h 0.203 q 0.408,5.79 1.512,8.771 l 0.437,0.347 h 0.232 q 0.435,0 1.832,-4.056 0.9,-1.838 1.308,-3.224 l -0.116,-0.382 q 0.9,-1.352 1.86,-1.352 h 0.204 q 0.61,0 0.873,0.763 0.813,1.144 1.308,3.432 l 1.628,3.606 q 0.32,0.381 0.32,0.866 0.902,2.046 1.628,2.705 h 0.35 q 0.61,0 1.628,-5.062 0.174,0 0.959,-2.704 v -0.139 l -1.832,-0.243 -0.436,0.139 h -0.552 v -0.277 l 1.105,-0.104 h 2.151 q 1.251,-4.473 2.297,-6.934 0.35,-5.062 0.96,-5.062 z m -11.078,2.981 h 0.32 v 0.104 q 0,0.243 -0.32,0.243 l -0.116,0.139 v 0.138 l -0.32,-0.138 v -0.243 z m -1.628,1.353 v 0.138 q 0,0.278 -1.396,0.59 v -0.243 l 0.64,-0.347 0.116,0.104 h 0.087 z m -3.14,1.248 v 0.104 q -0.61,0.555 -1.978,1.005 v -0.243 q 0.233,0 0.233,-0.381 z m 5.524,1.213 0.116,0.139 v 0.104 l -0.203,0.277 h -0.116 l -0.233,-0.277 v -0.104 z m 4.013,0.139 h 0.116 v 0.104 l -0.204,0.277 h -0.116 v -0.139 z m -1.832,1.733 0.436,0.347 q -0.116,0.381 -0.64,0.381 l -0.232,-0.381 q 0,-0.173 0.436,-0.347 m 2.617,1.595 0.087,0.139 v 0.104 l -0.087,0.138 h -0.233 v -0.138 z m -4.13,1.248 v 0.104 l -0.552,0.52 h -0.32 v -0.139 q 0,-0.312 0.873,-0.485 m -3.81,10.609 h 0.117 v 0.243 l -0.872,0.52 -0.116,-0.139 V 530.3 Z m -0.32,3.224 h 0.087 l 0.35,0.382 -0.117,0.104 h -0.116 l -0.204,-0.347 z"
       id="path249" /></g></svg>
