<?xml version="1.0" encoding="UTF-8" standalone="no"?>
<svg
   width="64"
   height="64"
   version="1.1"
   id="svg12"
   sodipodi:docname="x11.svg"
   xml:space="preserve"
   inkscape:version="1.2.2 (b0a8486541, 2022-12-01)"
   xmlns:inkscape="http://www.inkscape.org/namespaces/inkscape"
   xmlns:sodipodi="http://sodipodi.sourceforge.net/DTD/sodipodi-0.dtd"
   xmlns="http://www.w3.org/2000/svg"
   xmlns:svg="http://www.w3.org/2000/svg"><defs
     id="defs16" /><sodipodi:namedview
     id="namedview14"
     pagecolor="#ffffff"
     bordercolor="#000000"
     borderopacity="0.25"
     inkscape:showpageshadow="2"
     inkscape:pageopacity="0.0"
     inkscape:pagecheckerboard="0"
     inkscape:deskcolor="#d1d1d1"
     showgrid="false"
     inkscape:zoom="8.953125"
     inkscape:cx="32.111693"
     inkscape:cy="32.111693"
     inkscape:window-width="1366"
     inkscape:window-height="738"
     inkscape:window-x="361"
     inkscape:window-y="20"
     inkscape:window-maximized="0"
     inkscape:current-layer="svg12" /><path
     fill="#c4c7cc"
     stroke="#9e9e9e"
     stroke-width="2"
     d="M25.9 43.834c-.52 0-.9.378-.9.834v10.955L20.922 56H20.9c-.52 0-.9.378-.9.834V58h24v-1.166c0-.456-.381-.834-.9-.834h-.024L39 55.623V44.668c0-.456-.38-.834-.9-.834z"
     id="path2" /><path
     fill="#c4c7cc"
     d="M25.9 43.834c-.52 0-.9.378-.9.834v10.955L20.922 56H20.9c-.52 0-.9.378-.9.834V58h24v-1.166c0-.456-.381-.834-.9-.834h-.024L39 55.623V44.668c0-.456-.38-.834-.9-.834z"
     id="path4" /><rect
     width="60"
     height="40"
     x="2"
     y="6"
     fill="#2f3337"
     stroke="#1a1a1a"
     stroke-width="2"
     rx="6"
     ry="6"
     id="rect6" /><rect
     width="60"
     height="40"
     x="2"
     y="6"
     fill="#2f3337"
     rx="6"
     ry="6"
     id="rect8" /><rect
     width="54"
     height="34"
     x="5"
     y="9"
     fill="#5294e2"
     rx="3"
     ry="3"
     id="rect10" /><g
     stroke-width="0.769"
     transform="matrix(0.79904549,0,0,0.79904549,13.090165,-6.0462555)"
     id="g253"><rect
       width="40"
       height="40"
       x="4"
       y="20"
       fill="#dae0e2"
       stroke="#000000"
       stroke-width="1.538"
       opacity="0.35"
       rx="3"
       id="rect245" /><rect
       width="40"
       height="40"
       x="4"
       y="20"
       fill="#dae0e2"
       rx="3"
       id="rect247" /><path
       fill="#373a3d"
       d="M 11.29,53.991 21.107,41.141 11,27.012 l 6.496,0.005 8.053,11.11 -12.041,15.864 z m 19.214,0.01 -7.998,-11.13 12.141,-15.87 h 2.164 L 26.954,39.911 37,54.001 Z"
       id="path249" /><path
       fill="#ec6e28"
       d="m 23.999,31.929 c -0.781,0 -1.615,0.06 -2.366,0.131 1.338,1.724 2.448,3.184 3.726,4.843 -0.717,-1.525 -2.191,-2.988 -1.682,-3.74 0.505,-0.744 1.434,-0.619 1.505,-0.619 1.49,0 2.925,0.167 4.266,0.474 l 0.314,-0.427 c -1.789,-0.455 -3.731,-0.662 -5.763,-0.662 m 8.071,1.392 -0.29,0.408 c 4.132,1.599 6.927,4.652 6.927,8.15 0,5.153 -6.059,9.334 -13.525,9.334 -7.466,0 -13.528,-4.18 -13.528,-9.333 0,-2.806 1.798,-5.325 4.641,-7.037 L 15.421,33.528 C 10.96,35.396 8,38.675 8,42.408 c 0,5.809 7.168,10.522 16,10.522 8.831,0 16,-4.712 16,-10.52 0,-3.874 -3.187,-7.262 -7.93,-9.089"
       id="path251" /></g></svg>
