<?xml version="1.0" encoding="UTF-8" standalone="no"?>
<svg
   width="24.159008"
   height="23.592878"
   viewBox="0 0 24.159008 23.592878"
   fill="none"
   version="1.1"
   id="svg4"
   sodipodi:docname="awesome.svg"
   xml:space="preserve"
   inkscape:version="1.2.2 (b0a8486541, 2022-12-01)"
   inkscape:export-filename=".config/awesome/themes/relz/icons/widgets/launch.svg"
   inkscape:export-xdpi="96"
   inkscape:export-ydpi="96"
   xmlns:inkscape="http://www.inkscape.org/namespaces/inkscape"
   xmlns:sodipodi="http://sodipodi.sourceforge.net/DTD/sodipodi-0.dtd"
   xmlns="http://www.w3.org/2000/svg"
   xmlns:svg="http://www.w3.org/2000/svg"><defs
     id="defs8" /><sodipodi:namedview
     id="namedview6"
     pagecolor="#ffffff"
     bordercolor="#000000"
     borderopacity="0.25"
     inkscape:showpageshadow="2"
     inkscape:pageopacity="0.0"
     inkscape:pagecheckerboard="0"
     inkscape:deskcolor="#d1d1d1"
     showgrid="false"
     inkscape:zoom="11.770833"
     inkscape:cx="31.306196"
     inkscape:cy="18.053098"
     inkscape:window-width="1362"
     inkscape:window-height="706"
     inkscape:window-x="0"
     inkscape:window-y="0"
     inkscape:window-maximized="1"
     inkscape:current-layer="g902" /><g
     id="g902"
     transform="matrix(0.05607437,0,0,0.05607437,-4.1306629,-23.36125)"><rect
       style="fill:none;stroke-width:19.5513"
       id="rect531"
       width="430.83868"
       height="420.74265"
       x="73.664009"
       y="416.61191" /><path
       style="fill:#ffffff;fill-opacity:1;fill-rule:nonzero;stroke:none;stroke-width:2.30339"
       d="m 34.380125,141.02262 c -26.3539912,0 -26.3539912,26.35399 -26.3539912,26.35399 v 52.68993 c 0,0 0,26.35399 26.3539912,26.35399 z m 0,0"
       id="path155" /><path
       style="fill:#ffffff;fill-opacity:1;fill-rule:nonzero;stroke:none;stroke-width:2.30339"
       d="M 34.380125,141.02262 H 247.18245 c 5.6685,0 11.12104,2.22238 15.17894,6.19034 l 9.24956,9.05158 1.8085,-14.36017 c 0.86378,-12.10177 9.07859,-22.42201 20.6855,-25.97606 l 23.91563,-7.31506 c 4.5258,-1.38564 9.52845,-0.0184 12.50666,3.66201 0.70182,0.88178 1.19669,1.71855 1.25068,2.40238 11.81386,148.3165 -191.95487,131.74289 -297.397795,131.74289 z m 0,0"
       id="path156" /><path
       style="fill:#ffffff;fill-opacity:1;fill-rule:nonzero;stroke:none;stroke-width:2.30339"
       d="m 192.54001,141.02262 c -20.48755,-2.52834 -27.64966,-26.34498 -79.07994,-26.34498 -51.430301,0 -52.716973,26.34498 -52.716973,26.34498 z m 0,0"
       id="path157" /><path
       style="fill:#ffffff;fill-opacity:1;fill-rule:nonzero;stroke:none;stroke-width:2.30339"
       d="m 1.1699748,180.29715 h 6.856159 v 26.84882 h -6.856159 z m 0,0"
       id="path158" /><path
       style="fill:#ffffff;fill-opacity:1;fill-rule:nonzero;stroke:none;stroke-width:2.30339"
       d="m -2.2491322,246.41156 c 1.88950897,0 3.428088,-1.52962 3.428088,-3.41911 v -98.54176 c 0,-1.88948 -1.53857903,-3.42807 -3.428088,-3.42807 -1.889496,0 -3.428088,1.53859 -3.428088,3.42807 v 98.54176 c 0,1.88949 1.538592,3.41911 3.428088,3.41911"
       id="path159" /><path
       style="fill:#ffffff;fill-opacity:1;fill-rule:nonzero;stroke:none;stroke-width:2.30339"
       d="M 179.35851,220.06654 H 73.924589 c -7.279056,0 -13.181492,-5.89342 -13.181492,-13.17246 0,-7.27908 5.902436,-13.17251 13.181492,-13.17251 H 179.35851 c 7.27905,0 13.1815,5.89343 13.1815,13.17251 0,7.27904 -5.90245,13.17246 -13.1815,13.17246"
       id="path160" /><path
       style="fill:#ffffff;fill-opacity:1;fill-rule:nonzero;stroke:none;stroke-width:2.30339"
       d="m -5.6772202,144.45069 h 6.847195 v 7.89989 h -6.847195 z m 0,0"
       id="path161" /><path
       style="fill:#ffffff;fill-opacity:1;fill-rule:nonzero;stroke:none;stroke-width:2.30339"
       d="m -5.6772202,235.09255 h 6.847195 v 7.8999 h -6.847195 z m 0,0"
       id="path162" /><path
       d="m 128.73772,781.24621 0.15054,-194.54529 215.31587,0.18371 0.0739,-21.17871 H 128.73772 V 467.73306 H 442.25085 V 781.24621 H 344.27799 V 673.47605 H 226.71056 l -0.17692,23.44735 102.17578,0.57966 -0.28498,83.01242 z"
       id="path10"
       style="fill:#ffffff;stroke-width:4.89866"
       sodipodi:nodetypes="ccccccccccccccc" /></g></svg>
